<?xml version="1.0" standalone="no"?><svg xmlns="http://www.w3.org/2000/svg" viewBox="0 0 1440 320"><path fill="#7189ff" fill-opacity="1" d="M0,0L18.5,42.7C36.9,85,74,171,111,202.7C147.7,235,185,213,222,208C258.5,203,295,213,332,229.3C369.2,245,406,267,443,245.3C480,224,517,160,554,128C590.8,96,628,96,665,112C701.5,128,738,160,775,176C812.3,192,849,192,886,186.7C923.1,181,960,171,997,154.7C1033.8,139,1071,117,1108,128C1144.6,139,1182,181,1218,192C1255.4,203,1292,181,1329,170.7C1366.2,160,1403,160,1422,160L1440,160L1440,320L1421.5,320C1403.1,320,1366,320,1329,320C1292.3,320,1255,320,1218,320C1181.5,320,1145,320,1108,320C1070.8,320,1034,320,997,320C960,320,923,320,886,320C849.2,320,812,320,775,320C738.5,320,702,320,665,320C627.7,320,591,320,554,320C516.9,320,480,320,443,320C406.2,320,369,320,332,320C295.4,320,258,320,222,320C184.6,320,148,320,111,320C73.8,320,37,320,18,320L0,320Z"></path></svg>